<svg xmlns="http://www.w3.org/2000/svg" style="display:none">
  <symbol id="archetype-construction" viewBox="0 0 24 24" fill="none" stroke="currentColor" stroke-width="1.8" stroke-linecap="round" stroke-linejoin="round">
    <path d="M12 4l8 4-8 4-8-4 8-4z"></path>
    <path d="M4 12l8 4 8-4"></path>
    <path d="M4 16l8 4 8-4"></path>
  </symbol>
  <symbol id="archetype-systems" viewBox="0 0 24 24" fill="none" stroke="currentColor" stroke-width="1.8" stroke-linecap="round" stroke-linejoin="round">
    <g transform="translate(12 14) scale(1.3) translate(-12 -12)">
      <path d="M12 2s-5 5-5 9a5 5 0 0 0 10 0c0-4-5-9-5-9z"></path>
      <path d="M12 9c-1.7 1.6-2 2.5-2 3.5a2 2 0 0 0 4 0c0-1-.3-1.9-2-3.5z"></path>
    </g>
  </symbol>
  <symbol id="archetype-spaceloads" viewBox="0 0 24 24" fill="currentColor" stroke="none">
    <path d="M13 2L4 14h6l-1 8 9-12h-6l1-8z"></path>
  </symbol>
  <symbol id="archetype-externalloads" viewBox="0 0 24 24" fill="none" stroke="currentColor" stroke-width="1.8" stroke-linecap="round" stroke-linejoin="round">
    <path d="M13 2L4 14h6l-1 8 9-12h-6l1-8z"></path>
    <text x="23" y="22" text-anchor="end" font-size="10" font-family="var(--font-family, sans-serif)" fill="currentColor" stroke="none">E</text>
  </symbol>
  <symbol id="measure-envelope" viewBox="0 0 24 24" fill="none" stroke="currentColor" stroke-width="1.8" stroke-linecap="round" stroke-linejoin="round">
    <path d="M3 13L12 4l9 9"></path>
    <path d="M5 12v9h14v-9"></path>
    <path d="M12 17v-6"></path>
    <path d="M10 13l2-2 2 2"></path>
  </symbol>
  <symbol id="measure-heating" viewBox="0 0 24 24" fill="none" stroke="currentColor" stroke-width="1.8" stroke-linecap="round" stroke-linejoin="round">
    <rect x="4" y="5" width="16" height="14" rx="2"></rect>
    <path d="M7.5 16c1-1 1-2 0-3s-1-2 0-3"></path>
    <path d="M12 16c1-1 1-2 0-3s-1-2 0-3"></path>
    <path d="M16.5 16c1-1 1-2 0-3s-1-2 0-3"></path>
  </symbol>
  <symbol id="measure-cooling" viewBox="0 0 24 24" fill="none" stroke="currentColor" stroke-width="1.6" stroke-linecap="round" stroke-linejoin="round">
    <path d="M12 3v18"></path>
    <path d="M3 12h18"></path>
    <path d="M6 6l12 12"></path>
    <path d="M18 6L6 18"></path>
  </symbol>
  <symbol id="measure-hotwater" viewBox="0 0 24 24" fill="none" stroke="currentColor" stroke-width="1.8" stroke-linecap="round" stroke-linejoin="round">
    <path d="M5 11h11a3 3 0 0 1 3 3v4H5z"></path>
    <path d="M5 11a4 4 0 0 1 8 0"></path>
    <path d="M19 14h2a2 2 0 0 1 0 4h-2"></path>
    <path d="M9 9h4"></path>
  </symbol>
  <symbol id="measure-plugload" viewBox="0 0 24 24" fill="none" stroke="currentColor" stroke-width="1.8" stroke-linecap="round" stroke-linejoin="round">
    <path d="M9 3v6"></path>
    <path d="M15 3v6"></path>
    <rect x="5" y="9" width="14" height="8" rx="2"></rect>
    <path d="M12 17v2"></path>
    <path d="M12 19c0 2-3 2-3 0"></path>
  </symbol>
  <symbol id="measure-gasequipment" viewBox="0 0 24 24" fill="none" stroke="currentColor" stroke-width="1.8" stroke-linecap="round" stroke-linejoin="round">
    <rect x="6" y="4" width="12" height="16" rx="2"></rect>
    <path d="M9 4V3h6v1"></path>
    <path d="M12 9c1.6 1.5 2.2 2.6 2.2 3.9a2.2 2.2 0 0 1-4.4 0c0-1.3.6-2.4 2.2-3.9z"></path>
  </symbol>
  <symbol id="measure-pv" viewBox="0 0 24 24" fill="none" stroke="currentColor" stroke-width="1.8" stroke-linecap="round" stroke-linejoin="round">
    <rect x="3" y="5" width="18" height="12" rx="1"></rect>
    <path d="M3 9h18"></path>
    <path d="M3 13h18"></path>
    <path d="M7 5v12"></path>
    <path d="M12 5v12"></path>
    <path d="M17 5v12"></path>
  </symbol>
</svg>
