<?xml version="1.0" encoding="utf-8"?>
<!-- Generator: Adobe Illustrator 24.0.1, SVG Export Plug-In . SVG Version: 6.00 Build 0)  -->
<svg version="1.1" id="图层_1" xmlns="http://www.w3.org/2000/svg" xmlns:xlink="http://www.w3.org/1999/xlink" x="0px" y="0px"
	 viewBox="0 0 800 800" style="enable-background:new 0 0 800 800;" xml:space="preserve">
<style type="text/css">
	.st0{fill:url(#SVGID_1_);}
	.st1{fill:#FFFFFF;}
</style>
<title>IconDemo</title>
<linearGradient id="SVGID_1_" gradientUnits="userSpaceOnUse" x1="235.3186" y1="114.2581" x2="564.4214" y2="684.2931" gradientTransform="matrix(1 0 0 -1 0 799.2756)">
	<stop  offset="0" style="stop-color:#003978"/>
	<stop  offset="1" style="stop-color:#F1392A"/>
</linearGradient>
<path class="st0" d="M729,590L399.8,780L70.7,590V210L399.8,20L729,210V590z M446.9,481.4l235.1-135.7v-54.3L399.8,454.3v271.4
	l282.1-162.9v-54.3L446.9,644.3V590l235.1-135.7V400L446.9,535.7V481.4z"/>
<polygon class="st1" points="446.9,481.4 681.9,345.7 681.9,291.4 399.8,454.3 399.8,725.7 681.9,562.8 681.9,508.6 446.9,644.3 
	446.9,590 681.9,454.3 681.9,400 446.9,535.7 "/>
</svg>
